# xmcd CD database file
#
# Track frame offsets:
#	150
#	14630
#	25017
#	36635
#	50357
#	62740
#	75265
#	90605
#	102422
#	113902
#	128230
#	148402
#	160200
#	171972
#	185240
#	194837
#	204882
#	217117
#	229837
#	243850
#	257162
#	268437
#	279545
#	290410
#	304230
#
# Disc length: 4226 seconds
#
# Revision: 1
# Processed by: cddbd v1.5.2PL0 Copyright (c) Steve Scherf et al.
# Submitted via: CDex 1.94
#
DISCID=87108019
DTITLE=Various Artist - A Fortune Of The Blues # 02
DYEAR=1997
DGENRE=Blues
TTITLE0=Sanfrancsico Breakdown - Dr.Ross
TTITLE1=Big Fine Woman - John Lee Hooker
TTITLE2=Tell Me Who - Bobo Jenkins
TTITLE3=Noble's Jump  - Jimmy Milner
TTITLE4=Thirty Two Tweny - Dr. Ross
TTITLE5=Miss Jesse James - James Walton
TTITLE6=Blues For Christmas - John Lee Hooker
TTITLE7=The Night You Left - Big Blue Carson
TTITLE8=Eloise - Maceo Merryweather
TTITLE9=Blues For The Big Town - John Lee Hooker
TTITLE10=Going Down Slow - Big Jack Raynolds
TTITLE11=Juke Hop - John Lee Hooker
TTITLE12=Sunnyland - Dr. Ross
TTITLE13=Going Back To Chicago - Chet Oliver
TTITLE14=Love You Baby - Eddie Kirkland
TTITLE15=Numbers Boogie - Dr. Ross
TTITLE16=I Need You Baby - Eddie Kirkland
TTITLE17=Without You Life Don't Mean A Thing - Maceo Merriweather
TTITLE18=We're All God's Chillun - John Lee Hooker
TTITLE19=Dog Me Blues - Henry Smith
TTITLE20=Lillie Mae - Calvin Frazier
TTITLE21=Leavin' Blues - James Walton
TTITLE22=Nothing But Love - Bobo Jenkins
TTITLE23=You Won't Treat Me Right - Big Jack Reynolds
TTITLE24=Miss Sadie Mae (Curl My Baby's Hair) - John Lee Hooker
EXTD=YEAR: 1997
EXTT0=
EXTT1=
EXTT2=
EXTT3=
EXTT4=
EXTT5=
EXTT6=
EXTT7=
EXTT8=
EXTT9=
EXTT10=
EXTT11=
EXTT12=
EXTT13=
EXTT14=
EXTT15=
EXTT16=
EXTT17=
EXTT18=
EXTT19=
EXTT20=
EXTT21=
EXTT22=
EXTT23=
EXTT24=
PLAYORDER=
